# xmcd
#
# Track frame offsets:
# 150
# 15323
# 32320
# 43709
# 64783
# 79364
# 99799
# 117655
# 122501
# 133307
# 146426
#
# Disc length: 2087 seconds
#
#
# Revision: 0
# Processed by: cddbd v1.5.2PL0 Copyright (c) Steve Scherf et al.
# Submitted via: Nero 7, 11, 10, 0 
#
DISCID=8c08250b
DTITLE=Porterhouse Bob - Who Called The Cops?
DYEAR=2007
DGENRE=Blues
TTITLE0=Did You Catch That Jack?
TTITLE1=I Ain't Got You
TTITLE2=Tippin On Fo Fo's
TTITLE3=New Orleans
TTITLE4=Doin' The Fat Thing
TTITLE5=Down By The Water
TTITLE6=Big Bob's Boogie
TTITLE7=Whodoo Voodoo
TTITLE8=Who Called The Cops?
TTITLE9=Talk Like That
TTITLE10=Slammin' The Ham
EXTD=
EXTT0=Did You Catch That Jack?
EXTT1=I Ain't Got You
EXTT2=Tippin On Fo Fo's
EXTT3=New Orleans
EXTT4=Doin' The Fat Thing
EXTT5=Down By The Water
EXTT6=Big Bob's Boogie
EXTT7=Whodoo Voodoo
EXTT8=Who Called The Cops?
EXTT9=Talk Like That
EXTT10=Slammin' The Ham
PLAYORDER=
